<?xml version="1.0" encoding="iso-8859-1"?>
<!-- Generator: Adobe Illustrator 19.0.0, SVG Export Plug-In . SVG Version: 6.00 Build 0)  -->
<svg version="1.1" id="Capa_1" xmlns="http://www.w3.org/2000/svg" xmlns:xlink="http://www.w3.org/1999/xlink" x="0px" y="0px"
	 viewBox="0 0 480 480" style="enable-background:new 0 0 480 480;" xml:space="preserve">
<g>
	<g>
		<path d="M464,352.004v-82.08c0-5.728-2.049-11.267-5.776-15.616L425.4,216.004H448c4.418,0,8-3.582,8-8v-40c0-4.418-3.582-8-8-8
			h-50.584l-25.968-64.92c-3.621-9.128-12.46-15.111-22.28-15.08h-22.696c-8.801-47.757-54.65-79.338-102.407-70.537
			c-35.865,6.609-63.928,34.672-70.537,70.537h-22.696c-9.824-0.028-18.665,5.957-22.288,15.088l-25.96,64.912H24
			c-4.418,0-8,3.582-8,8v40c0,4.418,3.582,8,8,8h30.608l-32.8,38.304c-3.739,4.345-5.799,9.884-5.808,15.616v82.08
			c-8.837,0-16,7.163-16,16v32c0,8.837,7.163,16,16,16h16v40c0,8.837,7.163,16,16,16h64c8.837,0,16-7.163,16-16v-40h224v40
			c0,8.837,7.163,16,16,16h64c8.837,0,16-7.163,16-16v-40h16c8.837,0,16-7.163,16-16v-32C480,359.168,472.837,352.004,464,352.004z
			 M440,176.004v24h-25.864c-1.345-2.351-2.555-4.776-3.624-7.264l-6.696-16.736H440z M240,24.004
			c39.765,0.002,71.999,32.239,71.997,72.003c-0.002,39.764-32.239,71.999-72.003,71.997c-37.434-0.002-68.622-28.688-71.746-65.992
			c-0.16-2.008-0.248-3.984-0.248-6.008C168.044,56.258,200.254,24.048,240,24.004z M158.08,128.004
			c17.616,45.234,68.567,67.623,113.801,50.007c22.935-8.932,41.075-27.071,50.007-50.007H338.4l26.176,72H115.424l26.176-72H158.08
			z M32,200.004v-24h44.184l-6.688,16.736c-1.073,2.487-2.282,4.912-3.624,7.264H32z M32,269.924c0-1.911,0.684-3.758,1.928-5.208
			l35.528-41.448c6.279-7.324,11.309-15.633,14.888-24.592l39.056-97.6c1.202-3.056,4.149-5.067,7.432-5.072H152
			c0,2.464,0.101,4.904,0.304,7.32c0.242,2.911,0.632,5.808,1.168,8.68H136c-3.364-0.001-6.369,2.103-7.52,5.264l-32,88
			c-1.511,4.152,0.63,8.743,4.782,10.254c0.878,0.319,1.804,0.483,2.738,0.482h272c4.418,0.001,8.001-3.579,8.002-7.998
			c0-0.934-0.163-1.861-0.482-2.738l-32-88c-1.151-3.161-4.156-5.265-7.52-5.264h-17.528c0.997-5.276,1.508-10.631,1.528-16h21.168
			c3.269,0.001,6.208,1.99,7.424,5.024l39.064,97.648c3.577,8.958,8.607,17.264,14.888,24.584l35.528,41.456
			c1.244,1.45,1.928,3.297,1.928,5.208v82.08H32V269.924z M112,456.004H48v-40h64V456.004z M432,456.004h-64v-40h64V456.004z
			 M464,400.004h-24H16v-32h448V400.004z"/>
	</g>
</g>
<g>
	<g>
		<path d="M88,264.004c-22.091,0-40,17.909-40,40c0,22.091,17.909,40,40,40s40-17.909,40-40
			C127.974,281.924,110.08,264.031,88,264.004z M88,328.004c-13.255,0-24-10.745-24-24s10.745-24,24-24s24,10.745,24,24
			S101.255,328.004,88,328.004z"/>
	</g>
</g>
<g>
	<g>
		<path d="M392,264.004c-22.091,0-40,17.909-40,40c0,22.091,17.909,40,40,40c22.091,0,40-17.909,40-40
			C431.974,281.924,414.08,264.031,392,264.004z M392,328.004c-13.255,0-24-10.745-24-24s10.745-24,24-24s24,10.745,24,24
			S405.255,328.004,392,328.004z"/>
	</g>
</g>
<g>
	<g>
		<path d="M320,272.004H160c-4.418,0-8,3.582-8,8v48c0,4.418,3.582,8,8,8h160c4.418,0,8-3.582,8-8v-48
			C328,275.586,324.418,272.004,320,272.004z M312,320.004H168v-8h144V320.004z M312,296.004H168v-8h144V296.004z"/>
	</g>
</g>
<g>
	<g>
		<path d="M286.024,66.732c-2.912-3.327-7.969-3.664-11.296-0.752l-57.504,50.32L198.4,91.204c-2.651-3.535-7.665-4.251-11.2-1.6
			c-3.535,2.651-4.251,7.665-1.6,11.2l24,32c1.344,1.787,3.375,2.93,5.6,3.152c0.266,0.031,0.533,0.047,0.8,0.048
			c1.939,0.002,3.812-0.7,5.272-1.976l64-56C288.599,75.117,288.936,70.059,286.024,66.732z"/>
	</g>
</g>
<g>
	<g>
		<path d="M472,48.004c-17.673,0-32-14.327-32-32c0-4.418-3.582-8-8-8s-8,3.582-8,8c0,17.673-14.327,32-32,32c-4.418,0-8,3.582-8,8
			s3.582,8,8,8c17.673,0,32,14.327,32,32c0,4.418,3.582,8,8,8s8-3.582,8-8c0-17.673,14.327-32,32-32c4.418,0,8-3.582,8-8
			S476.418,48.004,472,48.004z M432,69.524c-3.562-5.362-8.158-9.958-13.52-13.52c5.362-3.562,9.958-8.158,13.52-13.52
			c3.562,5.362,8.158,9.958,13.52,13.52C440.158,59.566,435.562,64.163,432,69.524z"/>
	</g>
</g>
<g>
	<g>
		<path d="M72,96.004c-13.255,0-24-10.745-24-24c0-4.418-3.582-8-8-8s-8,3.582-8,8c0,13.255-10.745,24-24,24c-4.418,0-8,3.582-8,8
			s3.582,8,8,8c13.255,0,24,10.745,24,24c0,4.418,3.582,8,8,8s8-3.582,8-8c0-13.255,10.745-24,24-24c4.418,0,8-3.582,8-8
			S76.418,96.004,72,96.004z M40,112.252c-2.331-3.138-5.109-5.917-8.248-8.248c3.138-2.331,5.917-5.109,8.248-8.248
			c2.331,3.138,5.109,5.917,8.248,8.248C45.109,106.335,42.331,109.114,40,112.252z"/>
	</g>
</g>
<g>
</g>
<g>
</g>
<g>
</g>
<g>
</g>
<g>
</g>
<g>
</g>
<g>
</g>
<g>
</g>
<g>
</g>
<g>
</g>
<g>
</g>
<g>
</g>
<g>
</g>
<g>
</g>
<g>
</g>
</svg>
